<svg version="1.2" baseProfile="tiny-ps" xmlns="http://www.w3.org/2000/svg" viewBox="0 0 17 19" width="17" height="19">
	<title>IMG</title>
	<style>
		tspan { white-space:pre }
		.shp0 { fill: #eba505 } 
	</style>
	<path id="IMG" fill-rule="evenodd" class="shp0" d="M12.77 10.49C11.93 12.18 9 11.24 9 13.72C9 18.56 13 19 13 19L4 19C4 19 8 18.57 8 13.72C8 11.24 5.06 12.18 4.23 10.49C2.33 10.17 0 6.69 0 4.74C0 2.7 0.57 1.05 2.5 1.05C2.63 1.05 2.76 1.06 2.89 1.07C3.02 1.09 3.15 1.11 3.27 1.14C3.4 1.17 3.52 1.21 3.64 1.26C3.77 1.3 3.88 1.36 4 1.41L4 0L13 0L13 1.43C13.12 1.37 13.24 1.31 13.36 1.26C13.48 1.22 13.61 1.18 13.73 1.15C13.86 1.11 13.99 1.09 14.12 1.07C14.25 1.06 14.38 1.05 14.51 1.05C16.44 1.05 17 2.7 17 4.74C17 6.7 14.66 10.2 12.77 10.49ZM0.99 4.74C1.07 5.2 1.2 5.66 1.37 6.1C1.55 6.54 1.76 6.96 2.02 7.36C2.28 7.76 2.58 8.12 2.91 8.46C3.24 8.8 3.61 9.1 4 9.36L4 2.65C3.89 2.56 3.78 2.49 3.66 2.42C3.55 2.35 3.42 2.29 3.29 2.25C3.16 2.2 3.03 2.16 2.9 2.14C2.76 2.11 2.63 2.1 2.49 2.1C1.11 2.1 0.99 3.28 0.99 4.74ZM14.53 2.1C14.39 2.1 14.25 2.11 14.11 2.14C13.98 2.16 13.84 2.2 13.71 2.25C13.58 2.3 13.46 2.36 13.34 2.43C13.22 2.5 13.11 2.58 13 2.67L13 9.37C13.39 9.11 13.76 8.81 14.09 8.47C14.43 8.13 14.73 7.76 14.99 7.37C15.24 6.97 15.46 6.55 15.63 6.11C15.81 5.67 15.94 5.21 16.02 4.74C16.02 3.28 15.9 2.1 14.53 2.1Z" />
</svg>